<svg width="25" height="24" viewBox="0 0 25 24" fill="none" xmlns="http://www.w3.org/2000/svg">
<path d="M11.1607 11.9231C11.1607 12.2619 11.3018 12.5868 11.553 12.8264C11.8042 13.066 12.1448 13.2005 12.5 13.2005C12.8552 13.2005 13.1958 13.066 13.447 12.8264C13.6982 12.5868 13.8393 12.2619 13.8393 11.9231C13.8393 11.5843 13.6982 11.2593 13.447 11.0198C13.1958 10.7802 12.8552 10.6456 12.5 10.6456C12.1448 10.6456 11.8042 10.7802 11.553 11.0198C11.3018 11.2593 11.1607 11.5843 11.1607 11.9231ZM16.741 11.9231C16.741 12.2619 16.8821 12.5868 17.1333 12.8264C17.3844 13.066 17.7251 13.2005 18.0803 13.2005C18.4355 13.2005 18.7761 13.066 19.0273 12.8264C19.2785 12.5868 19.4196 12.2619 19.4196 11.9231C19.4196 11.5843 19.2785 11.2593 19.0273 11.0198C18.7761 10.7802 18.4355 10.6456 18.0803 10.6456C17.7251 10.6456 17.3844 10.7802 17.1333 11.0198C16.8821 11.2593 16.741 11.5843 16.741 11.9231ZM5.58045 11.9231C5.58045 12.2619 5.72155 12.5868 5.97271 12.8264C6.22387 13.066 6.56452 13.2005 6.91971 13.2005C7.27491 13.2005 7.61556 13.066 7.86672 12.8264C8.11788 12.5868 8.25898 12.2619 8.25898 11.9231C8.25898 11.5843 8.11788 11.2593 7.86672 11.0198C7.61556 10.7802 7.27491 10.6456 6.91971 10.6456C6.56452 10.6456 6.22387 10.7802 5.97271 11.0198C5.72155 11.2593 5.58045 11.5843 5.58045 11.9231ZM24.0289 7.30288C23.3983 5.87371 22.4943 4.59092 21.342 3.4891C20.1977 2.39365 18.8393 1.52291 17.3437 0.926168C15.8091 0.311384 14.1797 0 12.5 0H12.4442C10.7534 0.0079842 9.11556 0.327352 7.5754 0.955443C6.0926 1.55831 4.74693 2.4306 3.61339 3.52369C2.47223 4.62285 1.57659 5.90033 0.957178 7.32418C0.315445 8.79859 -0.00821214 10.3662 0.000158292 11.979C0.00962595 13.8272 0.468043 15.6483 1.33943 17.2991V21.3444C1.33943 21.6691 1.47465 21.9805 1.71535 22.2101C1.95604 22.4397 2.2825 22.5687 2.62289 22.5687H6.8667C8.59741 23.3999 10.5065 23.8371 12.4442 23.8462H12.5028C14.1741 23.8462 15.7952 23.5374 17.3214 22.9333C18.8094 22.3437 20.1628 21.4831 21.3057 20.3996C22.458 19.3111 23.3648 18.039 23.9982 16.6204C24.6567 15.1514 24.9915 13.5891 24.9998 11.9763C25.0082 10.3555 24.679 8.78262 24.0289 7.30288ZM19.813 18.9598C17.8571 20.8068 15.2622 21.8235 12.5 21.8235H12.4526C10.7701 21.8155 9.09882 21.4163 7.62283 20.6658L7.38846 20.546H3.45994V16.7988L3.33438 16.5752C2.54756 15.1673 2.12904 13.5731 2.12067 11.9683C2.10951 9.3149 3.17255 6.82383 5.12286 4.94754C7.07038 3.07126 9.67359 2.03331 12.4554 2.02266H12.5028C13.8979 2.02266 15.2511 2.28082 16.5262 2.79181C17.7706 3.28949 18.8866 4.00541 19.8464 4.92093C20.8035 5.83379 21.5568 6.90101 22.0786 8.088C22.6199 9.31756 22.8905 10.6217 22.8849 11.9683C22.8682 14.6191 21.7772 17.1022 19.813 18.9598Z" fill="black" fill-opacity="0.45"/>
</svg>
