<svg width="14" height="13" viewBox="0 0 14 13" fill="none" xmlns="http://www.w3.org/2000/svg">
<path d="M6.25001 6.5C6.25001 6.6847 6.32903 6.86184 6.46968 6.99245C6.61033 7.12305 6.80109 7.19643 7 7.19643C7.19891 7.19643 7.38967 7.12305 7.53032 6.99245C7.67097 6.86184 7.74999 6.6847 7.74999 6.5C7.74999 6.3153 7.67097 6.13816 7.53032 6.00755C7.38967 5.87694 7.19891 5.80357 7 5.80357C6.80109 5.80357 6.61033 5.87694 6.46968 6.00755C6.32903 6.13816 6.25001 6.3153 6.25001 6.5ZM9.37497 6.5C9.37497 6.6847 9.45399 6.86184 9.59464 6.99245C9.73529 7.12305 9.92605 7.19643 10.125 7.19643C10.3239 7.19643 10.5146 7.12305 10.6553 6.99245C10.7959 6.86184 10.875 6.6847 10.875 6.5C10.875 6.3153 10.7959 6.13816 10.6553 6.00755C10.5146 5.87694 10.3239 5.80357 10.125 5.80357C9.92605 5.80357 9.73529 5.87694 9.59464 6.00755C9.45399 6.13816 9.37497 6.3153 9.37497 6.5ZM3.12505 6.5C3.12505 6.6847 3.20407 6.86184 3.34472 6.99245C3.48537 7.12305 3.67613 7.19643 3.87504 7.19643C4.07395 7.19643 4.26471 7.12305 4.40536 6.99245C4.54601 6.86184 4.62503 6.6847 4.62503 6.5C4.62503 6.3153 4.54601 6.13816 4.40536 6.00755C4.26471 5.87694 4.07395 5.80357 3.87504 5.80357C3.67613 5.80357 3.48537 5.87694 3.34472 6.00755C3.20407 6.13816 3.12505 6.3153 3.12505 6.5ZM13.4562 3.98125C13.1031 3.20212 12.5968 2.50279 11.9515 1.90212C11.3107 1.30493 10.55 0.830232 9.71247 0.504911C8.8531 0.169755 7.94061 0 7 0H6.96875C6.02189 0.00435268 5.10471 0.17846 4.24222 0.520871C3.41185 0.849529 2.65828 1.32507 2.0235 1.92098C1.38445 2.5202 0.88289 3.21663 0.536019 3.99286C0.176649 4.79665 -0.0045988 5.65123 8.86437e-05 6.53047C0.00539053 7.53807 0.262104 8.53082 0.750079 9.4308V11.6362C0.750079 11.8132 0.825804 11.9829 0.960594 12.1081C1.09538 12.2333 1.2782 12.3036 1.46882 12.3036H3.84535C4.81455 12.7567 5.88365 12.9951 6.96875 13H7.00156C7.93749 13 8.84529 12.8317 9.69997 12.5023C10.5333 12.1809 11.2911 11.7117 11.9312 11.1211C12.5765 10.5277 13.0843 9.83415 13.439 9.06083C13.8077 8.25993 13.9952 7.40826 13.9999 6.52902C14.0046 5.64542 13.8202 4.78795 13.4562 3.98125ZM11.0953 10.3362C9.99996 11.3431 8.54686 11.8973 7 11.8973H6.97344C6.03126 11.893 5.09534 11.6753 4.26879 11.2662L4.13754 11.2009H1.93756V9.15804L1.86725 9.03616C1.42663 8.26864 1.19226 7.39955 1.18757 6.52467C1.18132 5.07812 1.77663 3.72009 2.8688 2.69721C3.95941 1.67433 5.41721 1.10848 6.975 1.10268H7.00156C7.7828 1.10268 8.54061 1.24341 9.25466 1.52199C9.95153 1.7933 10.5765 2.18359 11.114 2.6827C11.6499 3.18036 12.0718 3.76217 12.364 4.40926C12.6671 5.07958 12.8187 5.79051 12.8156 6.52467C12.8062 7.96975 12.1952 9.32344 11.0953 10.3362Z" fill="black" fill-opacity="0.45"/>
</svg>
