<svg width="25" height="19" viewBox="0 0 25 19" fill="none" xmlns="http://www.w3.org/2000/svg">
<path d="M24.5033 8.78188C21.8582 3.20989 17.8599 0.405762 12.4999 0.405762C7.13719 0.405762 3.14166 3.20989 0.496569 8.78467C0.390473 9.00933 0.335449 9.25469 0.335449 9.50314C0.335449 9.75159 0.390473 9.99695 0.496569 10.2216C3.14166 15.7936 7.13998 18.5977 12.4999 18.5977C17.8626 18.5977 21.8582 15.7936 24.5033 10.2188C24.7181 9.76681 24.7181 9.24226 24.5033 8.78188ZM12.4999 16.5888C7.99936 16.5888 4.70416 14.3064 2.37994 9.50174C4.70416 4.69706 7.99936 2.41469 12.4999 2.41469C17.0005 2.41469 20.2957 4.69706 22.6199 9.50174C20.2985 14.3064 17.0033 16.5888 12.4999 16.5888ZM12.3883 4.59103C9.67626 4.59103 7.4776 6.78969 7.4776 9.50174C7.4776 12.2138 9.67626 14.4125 12.3883 14.4125C15.1004 14.4125 17.299 12.2138 17.299 9.50174C17.299 6.78969 15.1004 4.59103 12.3883 4.59103ZM12.3883 12.6267C10.6612 12.6267 9.26331 11.2289 9.26331 9.50174C9.26331 7.77462 10.6612 6.37674 12.3883 6.37674C14.1154 6.37674 15.5133 7.77462 15.5133 9.50174C15.5133 11.2289 14.1154 12.6267 12.3883 12.6267Z" fill="#858687"/>
</svg>
