<svg width="22" height="16" viewBox="0 0 22 16" fill="none" xmlns="http://www.w3.org/2000/svg">
<path d="M8.28163 8C8.28163 8.69619 8.55819 9.36387 9.05048 9.85616C9.54276 10.3484 10.2104 10.625 10.9066 10.625C11.6028 10.625 12.2705 10.3484 12.7628 9.85616C13.2551 9.36387 13.5316 8.69619 13.5316 8C13.5316 7.30381 13.2551 6.63613 12.7628 6.14384C12.2705 5.65156 11.6028 5.375 10.9066 5.375C10.2104 5.375 9.54276 5.65156 9.05048 6.14384C8.55819 6.63613 8.28163 7.30381 8.28163 8ZM21.0832 7.39531C18.8613 2.71484 15.5027 0.359375 11.0004 0.359375C6.49569 0.359375 3.13944 2.71484 0.917567 7.39766C0.828447 7.58637 0.782227 7.79247 0.782227 8.00117C0.782227 8.20987 0.828447 8.41598 0.917567 8.60469C3.13944 13.2852 6.49804 15.6406 11.0004 15.6406C15.5051 15.6406 18.8613 13.2852 21.0832 8.60234C21.2637 8.22266 21.2637 7.78203 21.0832 7.39531ZM10.9066 12.125C8.62851 12.125 6.78163 10.2781 6.78163 8C6.78163 5.72188 8.62851 3.875 10.9066 3.875C13.1848 3.875 15.0316 5.72188 15.0316 8C15.0316 10.2781 13.1848 12.125 10.9066 12.125Z" fill="white" fill-opacity="0.94"/>
</svg>
