<svg width="15" height="12" viewBox="0 0 15 12" fill="none" xmlns="http://www.w3.org/2000/svg">
<path d="M14.7021 5.88846C13.1151 2.54527 10.7161 0.862793 7.5001 0.862793C4.28246 0.862793 1.88514 2.54527 0.298088 5.89014C0.234431 6.02493 0.201416 6.17215 0.201416 6.32122C0.201416 6.47029 0.234431 6.61751 0.298088 6.7523C1.88514 10.0955 4.28414 11.778 7.5001 11.778C10.7177 11.778 13.1151 10.0955 14.7021 6.75063C14.831 6.47942 14.831 6.16469 14.7021 5.88846ZM7.5001 10.5726C4.79976 10.5726 2.82264 9.20319 1.42811 6.32038C2.82264 3.43757 4.79976 2.06815 7.5001 2.06815C10.2004 2.06815 12.1776 3.43757 13.5721 6.32038C12.1792 9.20319 10.2021 10.5726 7.5001 10.5726ZM7.43313 3.37395C5.8059 3.37395 4.4867 4.69315 4.4867 6.32038C4.4867 7.94761 5.8059 9.26681 7.43313 9.26681C9.06036 9.26681 10.3796 7.94761 10.3796 6.32038C10.3796 4.69315 9.06036 3.37395 7.43313 3.37395ZM7.43313 8.19538C6.39686 8.19538 5.55813 7.35665 5.55813 6.32038C5.55813 5.28411 6.39686 4.44538 7.43313 4.44538C8.46941 4.44538 9.30813 5.28411 9.30813 6.32038C9.30813 7.35665 8.46941 8.19538 7.43313 8.19538Z" fill="black" fill-opacity="0.85"/>
</svg>
