<svg width="15" height="14" viewBox="0 0 15 14" fill="none" xmlns="http://www.w3.org/2000/svg">
<path d="M14.3232 3.52755C14.1007 3.0123 13.7799 2.54538 13.3786 2.15294C12.9771 1.75933 12.5036 1.44653 11.9841 1.23155C11.4453 1.00775 10.8675 0.8932 10.2841 0.894543C9.46562 0.894543 8.66709 1.11866 7.97314 1.542C7.80713 1.64327 7.64941 1.7545 7.5 1.8757C7.35059 1.7545 7.19287 1.64327 7.02686 1.542C6.33291 1.11866 5.53437 0.894543 4.71592 0.894543C4.12656 0.894543 3.55547 1.00743 3.01592 1.23155C2.49463 1.44737 2.0248 1.75782 1.62139 2.15294C1.21962 2.54494 0.898684 3.01197 0.676758 3.52755C0.445996 4.06378 0.328125 4.63321 0.328125 5.21925C0.328125 5.77208 0.441016 6.34816 0.665137 6.93419C0.852734 7.42394 1.12168 7.93194 1.46533 8.44493C2.00986 9.25675 2.75859 10.1034 3.68828 10.9617C5.22891 12.3845 6.75459 13.3673 6.81934 13.4071L7.21279 13.6595C7.38711 13.7707 7.61123 13.7707 7.78555 13.6595L8.179 13.4071C8.24375 13.3656 9.76777 12.3845 11.3101 10.9617C12.2397 10.1034 12.9885 9.25675 13.533 8.44493C13.8767 7.93194 14.1473 7.42394 14.3332 6.93419C14.5573 6.34816 14.6702 5.77208 14.6702 5.21925C14.6719 4.63321 14.554 4.06378 14.3232 3.52755Z" fill="black" fill-opacity="0.85"/>
</svg>
