<svg width="18" height="18" viewBox="0 0 18 18" fill="none" xmlns="http://www.w3.org/2000/svg">
<path d="M9.603 15.966L9 16.515L7.695 15.327C3.06 11.124 0 8.343 0 4.95C0 2.169 2.178 0 4.95 0C6.516 0 8.019 0.729 9 1.872C9.981 0.729 11.484 0 13.05 0C15.822 0 18 2.169 18 4.95C18 6.237 17.55 7.434 16.758 8.649C16.2 8.379 15.579 8.199 14.931 8.136C15.75 7.02 16.2 5.985 16.2 4.95C16.2 3.15 14.85 1.8 13.05 1.8C11.664 1.8 10.314 2.7 9.837 3.924H8.163C7.686 2.7 6.336 1.8 4.95 1.8C3.15 1.8 1.8 3.15 1.8 4.95C1.8 7.551 4.626 10.116 8.901 13.995L9 14.085L9.036 14.049C9.108 14.733 9.306 15.381 9.603 15.966ZM13.5 9.9V12.6H10.8V14.4H13.5V17.1H15.3V14.4H18V12.6H15.3V9.9H13.5Z" fill="#A2A2A2"/>
</svg>
