<svg width="116" height="116" viewBox="0 0 116 116" fill="none" xmlns="http://www.w3.org/2000/svg">
<g clip-path="url(#clip0_417_1440)">
<path d="M92.4723 58.6856C91.8146 57.8086 90.5706 57.631 89.6936 58.2887C89.2724 58.6048 88.9938 59.0752 88.9196 59.5966L87.8181 67.3173C87.7915 67.4165 87.7568 67.5133 87.7148 67.6071C89.739 64.9192 91.3727 61.9582 92.5675 58.8127L92.4723 58.6856Z" fill="#177DDC"/>
<path d="M85.8512 69.0204C85.7577 69.0204 85.6641 69.0144 85.5713 69.0025L73.782 67.3175C72.6968 67.1619 71.9433 66.1564 72.0989 65.0712C72.0989 65.071 72.0989 65.071 72.0989 65.0707L73.2004 57.3501C73.354 56.2647 72.5988 55.2604 71.5134 55.1068C70.9941 55.0334 70.4667 55.1683 70.0467 55.4824L63.8066 60.1605C62.9296 60.8182 61.6857 60.6405 61.028 59.7635L53.8829 50.2367C53.2252 49.3597 53.4028 48.1158 54.2798 47.4581L60.5179 42.78C61.3949 42.1223 61.5725 40.8784 60.9149 40.0014C60.5988 39.5801 60.1284 39.3015 59.6069 39.2273L51.8862 38.1238C50.8011 37.9695 50.0464 36.9645 50.201 35.8793C50.201 35.8786 50.2012 35.8778 50.2012 35.8771L51.8862 24.0897C52.0406 23.0045 53.0456 22.2498 54.1307 22.4044C54.1315 22.4044 54.1322 22.4046 54.133 22.4046L61.8536 23.5081C62.6478 23.6233 63.4325 23.2457 63.8384 22.5535C64.2599 21.8655 64.2125 20.9888 63.7193 20.3504L59.0452 14.1143C58.3875 13.2373 58.5652 11.9934 59.4422 11.3357L60.5675 10.4922C58.7445 10.4041 56.9173 10.453 55.1015 10.6391C35.4982 12.8773 21.4214 30.5835 23.6597 50.1869C24.8791 60.866 30.8417 70.4285 39.8944 76.223C43.1995 78.2723 45.2294 81.8671 45.277 85.7557V93.7761C45.277 97.0646 47.9428 99.7303 51.2313 99.7303H67.1092C70.3977 99.7303 73.0635 97.0646 73.0635 93.7761V85.9205C73.1138 81.9406 75.1854 78.2599 78.5612 76.1516C81.6902 74.1217 84.4844 71.6174 86.8436 68.7286C86.5444 68.912 86.202 69.0127 85.8512 69.0204ZM61.155 93.7761H57.1855V87.8219H61.155V93.7761ZM57.1855 83.8524C57.1843 78.6047 53.9484 73.9009 49.0481 72.0233C34.7557 66.4347 27.6999 50.3184 33.2884 36.0259C35.4523 30.4917 39.3335 25.7971 44.3621 22.6309L46.4679 25.9891C35.3347 32.9945 31.9887 47.6985 38.9941 58.8317C41.7082 63.145 45.7345 66.4742 50.481 68.3297C56.9136 70.79 61.16 76.9653 61.155 83.8524H57.1855Z" fill="#177DDC"/>
<path d="M51.2324 109.654V111.639C51.2324 113.831 53.0095 115.608 55.2019 115.608H63.1409C65.3333 115.608 67.1104 113.831 67.1104 111.639V109.654H51.2324Z" fill="#177DDC"/>
<path d="M38.8235 77.8981C37.6475 77.1358 36.515 76.3081 35.4315 75.4192C32.4353 81.2519 25.2783 83.5512 19.4456 80.5552C15.4757 78.5159 12.9848 74.4224 12.998 69.9592C13.0071 63.9585 17.476 58.9004 23.4298 58.1519C22.7014 55.9612 22.1752 53.7083 21.8579 51.4216L21.5105 53.0729C21.0595 55.2182 18.9544 56.5916 16.8092 56.1406C16.2954 56.0327 15.8081 55.8238 15.3757 55.5261L11.2474 52.6919L7.6312 56.3001L10.4734 60.4324C11.7173 62.2375 11.2623 64.7095 9.45716 65.9534C9.02424 66.2517 8.53649 66.461 8.02219 66.5692L3.07422 67.6112V72.327L8.02219 73.369C10.1675 73.8207 11.5404 75.9261 11.0886 78.0713C10.9802 78.5864 10.7703 79.0746 10.4714 79.5078L7.6312 83.6182L11.2474 87.2265L15.3717 84.3843C17.1768 83.1404 19.6488 83.5954 20.8928 85.4005C21.191 85.8334 21.4004 86.3212 21.5085 86.8355L22.5485 91.7914H27.2663L28.3063 86.8434C28.7578 84.6981 30.8629 83.3249 33.0082 83.7765C33.5225 83.8846 34.0102 84.094 34.4431 84.3922L38.5655 87.2265L42.8227 82.9692C42.109 80.8713 40.6973 79.0813 38.8235 77.8981Z" fill="#177DDC"/>
<path d="M67.1104 101.715H51.2324V105.684H67.1104V101.715Z" fill="#177DDC"/>
<path d="M108.728 34.2157C105.473 33.7503 103.211 30.7337 103.676 27.4785C103.9 25.9153 104.735 24.5049 105.999 23.5576L110.649 20.0685L105.886 13.7173L101.235 17.2045C98.6051 19.1783 94.8727 18.6459 92.8992 16.0159C91.9527 14.7546 91.5451 13.169 91.7661 11.6075L92.5878 5.85173L84.7302 4.73035L83.9085 10.4861C83.4428 13.7413 80.4265 16.003 77.1713 15.5375C75.608 15.314 74.1976 14.4787 73.2504 13.2151L69.7612 8.55694L63.41 13.3203L66.8972 17.9706C68.8706 20.6011 68.3379 24.3332 65.7074 26.3068C64.4434 27.255 62.8546 27.6618 61.2903 27.4378L55.5346 26.6161L54.4072 34.4757L60.163 35.2974C63.4182 35.7631 65.6798 38.7794 65.2144 42.0346C64.9909 43.5979 64.1556 45.0083 62.892 45.9555L58.2437 49.4447L63.0071 55.7959L67.6574 52.3087C70.2879 50.3353 74.02 50.868 75.9936 53.4985C76.9418 54.7626 77.3487 56.3516 77.1246 57.9156L76.303 63.6713L84.1784 64.7987L85.0001 59.0429C85.4658 55.7877 88.4821 53.5261 91.7373 53.9915C93.3006 54.215 94.711 55.0503 95.6582 56.3139L99.1474 60.9622L105.499 56.1988L101.999 51.5406C100.027 48.9095 100.561 45.1775 103.192 43.2049C104.453 42.2592 106.038 41.8523 107.598 42.0733L113.354 42.895L114.476 35.0374L108.728 34.2157ZM84.4484 46.666C77.8714 46.666 72.5399 41.3345 72.5399 34.7576C72.5399 28.1806 77.8714 22.8491 84.4484 22.8491C91.0253 22.8491 96.3568 28.1806 96.3568 34.7576C96.3491 41.3313 91.0221 46.6583 84.4484 46.666Z" fill="#177DDC"/>
<path d="M110.774 73.9285H96.8809V77.898H110.774V73.9285Z" fill="#177DDC"/>
<path d="M96.1668 84.3111L93.626 87.3608L105.535 97.2829L108.076 94.2332L96.1668 84.3111Z" fill="#177DDC"/>
<path d="M88.9421 89.8064H84.9727V103.7H88.9421V89.8064Z" fill="#177DDC"/>
<path d="M17.0087 30.3226L1.13184 34.2914L2.09396 38.1403L17.9708 34.1715L17.0087 30.3226Z" fill="#177DDC"/>
<path d="M6.73365 10.7891L4.42773 14.0175L18.3199 23.9402L20.6258 20.7118L6.73365 10.7891Z" fill="#177DDC"/>
<path d="M25.2792 -0.00118728L21.4336 0.982056L25.4929 16.8588L29.3386 15.8756L25.2792 -0.00118728Z" fill="#177DDC"/>
</g>
<defs>
<clipPath id="clip0_417_1440">
<rect width="115.608" height="115.608" fill="white"/>
</clipPath>
</defs>
</svg>
