<svg width="466" height="93" viewBox="0 0 466 93" fill="none" xmlns="http://www.w3.org/2000/svg">
<path d="M1 11C1 5.47715 5.47715 1 11 1H455C460.523 1 465 5.47715 465 11V82C465 87.5229 460.523 92 455 92H11C5.47715 92 1 87.5229 1 82V11Z" fill="#F9F9F9"/>
<path d="M99.6304 24.2266V42H97.311V24.2266H99.6304ZM105.343 24.2266V26.1553H91.6104V24.2266H105.343ZM105.819 35.5425V35.2617C105.819 34.3096 105.958 33.4266 106.234 32.6128C106.511 31.7909 106.91 31.0788 107.431 30.4766C107.951 29.8662 108.582 29.3942 109.323 29.0605C110.063 28.7188 110.893 28.5479 111.813 28.5479C112.741 28.5479 113.575 28.7188 114.315 29.0605C115.064 29.3942 115.699 29.8662 116.22 30.4766C116.749 31.0788 117.152 31.7909 117.428 32.6128C117.705 33.4266 117.843 34.3096 117.843 35.2617V35.5425C117.843 36.4946 117.705 37.3776 117.428 38.1914C117.152 39.0052 116.749 39.7173 116.22 40.3276C115.699 40.9299 115.068 41.4019 114.328 41.7437C113.595 42.0773 112.765 42.2441 111.837 42.2441C110.91 42.2441 110.076 42.0773 109.335 41.7437C108.594 41.4019 107.96 40.9299 107.431 40.3276C106.91 39.7173 106.511 39.0052 106.234 38.1914C105.958 37.3776 105.819 36.4946 105.819 35.5425ZM108.078 35.2617V35.5425C108.078 36.2017 108.155 36.8242 108.31 37.4102C108.464 37.988 108.696 38.5007 109.005 38.9482C109.323 39.3958 109.717 39.7498 110.189 40.0103C110.661 40.2625 111.211 40.3887 111.837 40.3887C112.456 40.3887 112.997 40.2625 113.461 40.0103C113.933 39.7498 114.324 39.3958 114.633 38.9482C114.942 38.5007 115.174 37.988 115.329 37.4102C115.491 36.8242 115.573 36.2017 115.573 35.5425V35.2617C115.573 34.6107 115.491 33.9963 115.329 33.4185C115.174 32.8325 114.938 32.3158 114.621 31.8682C114.311 31.4124 113.921 31.0544 113.449 30.7939C112.985 30.5335 112.44 30.4033 111.813 30.4033C111.194 30.4033 110.649 30.5335 110.177 30.7939C109.713 31.0544 109.323 31.4124 109.005 31.8682C108.696 32.3158 108.464 32.8325 108.31 33.4185C108.155 33.9963 108.078 34.6107 108.078 35.2617ZM112.399 23.25L115.426 26.5825V26.7046H113.546L111.715 24.6416L109.896 26.7046H108.041V26.5703L111.032 23.25H112.399ZM123.129 28.792V42H120.858V28.792H123.129ZM120.688 25.2886C120.688 24.9224 120.797 24.6131 121.017 24.3608C121.245 24.1086 121.579 23.9824 122.018 23.9824C122.449 23.9824 122.779 24.1086 123.007 24.3608C123.243 24.6131 123.361 24.9224 123.361 25.2886C123.361 25.6385 123.243 25.9396 123.007 26.1919C122.779 26.436 122.449 26.5581 122.018 26.5581C121.579 26.5581 121.245 26.436 121.017 26.1919C120.797 25.9396 120.688 25.6385 120.688 25.2886ZM135.226 23.25V42H132.956V23.25H135.226ZM143.295 28.792L137.533 34.9565L134.311 38.3013L134.127 35.8965L136.435 33.1377L140.536 28.792H143.295ZM141.232 42L136.52 35.7012L137.692 33.687L143.893 42H141.232ZM147.885 23.25V42H145.626V23.25H147.885ZM147.348 34.8955L146.408 34.8589C146.416 33.9556 146.55 33.1214 146.811 32.3564C147.071 31.5833 147.437 30.9119 147.909 30.3423C148.381 29.7726 148.943 29.3332 149.594 29.0239C150.253 28.7065 150.981 28.5479 151.779 28.5479C152.43 28.5479 153.016 28.6374 153.537 28.8164C154.057 28.9873 154.501 29.264 154.867 29.6465C155.242 30.029 155.526 30.5254 155.722 31.1357C155.917 31.738 156.015 32.4744 156.015 33.3452V42H153.744V33.3208C153.744 32.6291 153.642 32.0757 153.439 31.6606C153.236 31.2375 152.938 30.9323 152.548 30.7451C152.157 30.5498 151.677 30.4521 151.107 30.4521C150.546 30.4521 150.033 30.5701 149.569 30.8062C149.114 31.0422 148.719 31.3677 148.385 31.7827C148.06 32.1978 147.803 32.6738 147.616 33.2109C147.437 33.7399 147.348 34.3014 147.348 34.8955ZM158.798 35.5425V35.2617C158.798 34.3096 158.936 33.4266 159.213 32.6128C159.49 31.7909 159.888 31.0788 160.409 30.4766C160.93 29.8662 161.561 29.3942 162.301 29.0605C163.042 28.7188 163.872 28.5479 164.792 28.5479C165.719 28.5479 166.553 28.7188 167.294 29.0605C168.043 29.3942 168.677 29.8662 169.198 30.4766C169.727 31.0788 170.13 31.7909 170.407 32.6128C170.683 33.4266 170.822 34.3096 170.822 35.2617V35.5425C170.822 36.4946 170.683 37.3776 170.407 38.1914C170.13 39.0052 169.727 39.7173 169.198 40.3276C168.677 40.9299 168.047 41.4019 167.306 41.7437C166.574 42.0773 165.744 42.2441 164.816 42.2441C163.888 42.2441 163.054 42.0773 162.313 41.7437C161.573 41.4019 160.938 40.9299 160.409 40.3276C159.888 39.7173 159.49 39.0052 159.213 38.1914C158.936 37.3776 158.798 36.4946 158.798 35.5425ZM161.056 35.2617V35.5425C161.056 36.2017 161.133 36.8242 161.288 37.4102C161.443 37.988 161.675 38.5007 161.984 38.9482C162.301 39.3958 162.696 39.7498 163.168 40.0103C163.64 40.2625 164.189 40.3887 164.816 40.3887C165.434 40.3887 165.976 40.2625 166.439 40.0103C166.911 39.7498 167.302 39.3958 167.611 38.9482C167.921 38.5007 168.153 37.988 168.307 37.4102C168.47 36.8242 168.551 36.2017 168.551 35.5425V35.2617C168.551 34.6107 168.47 33.9963 168.307 33.4185C168.153 32.8325 167.917 32.3158 167.599 31.8682C167.29 31.4124 166.899 31.0544 166.427 30.7939C165.963 30.5335 165.418 30.4033 164.792 30.4033C164.173 30.4033 163.628 30.5335 163.156 30.7939C162.692 31.0544 162.301 31.4124 161.984 31.8682C161.675 32.3158 161.443 32.8325 161.288 33.4185C161.133 33.9963 161.056 34.6107 161.056 35.2617ZM165.377 23.25L168.405 26.5825V26.7046H166.525L164.694 24.6416L162.875 26.7046H161.02V26.5703L164.01 23.25H165.377ZM175.912 31.6118V42H173.654V28.792H175.79L175.912 31.6118ZM175.375 34.8955L174.435 34.8589C174.443 33.9556 174.577 33.1214 174.838 32.3564C175.098 31.5833 175.465 30.9119 175.937 30.3423C176.409 29.7726 176.97 29.3332 177.621 29.0239C178.28 28.7065 179.009 28.5479 179.806 28.5479C180.457 28.5479 181.043 28.6374 181.564 28.8164C182.085 28.9873 182.528 29.264 182.895 29.6465C183.269 30.029 183.554 30.5254 183.749 31.1357C183.944 31.738 184.042 32.4744 184.042 33.3452V42H181.771V33.3208C181.771 32.6291 181.67 32.0757 181.466 31.6606C181.263 31.2375 180.966 30.9323 180.575 30.7451C180.185 30.5498 179.704 30.4521 179.135 30.4521C178.573 30.4521 178.061 30.5701 177.597 30.8062C177.141 31.0422 176.746 31.3677 176.413 31.7827C176.087 32.1978 175.831 32.6738 175.644 33.2109C175.465 33.7399 175.375 34.3014 175.375 34.8955ZM196.029 28.792H198.08V41.7192C198.08 42.883 197.844 43.8758 197.372 44.6978C196.9 45.5197 196.241 46.1423 195.395 46.5654C194.556 46.9967 193.588 47.2124 192.489 47.2124C192.034 47.2124 191.496 47.1392 190.878 46.9927C190.268 46.8543 189.665 46.6143 189.071 46.2725C188.485 45.9388 187.993 45.4871 187.594 44.9175L188.778 43.5747C189.332 44.242 189.91 44.7059 190.512 44.9663C191.122 45.2267 191.724 45.3569 192.318 45.3569C193.035 45.3569 193.653 45.2227 194.174 44.9541C194.695 44.6855 195.097 44.2868 195.382 43.7578C195.675 43.237 195.822 42.5941 195.822 41.8291V31.6973L196.029 28.792ZM186.935 35.5425V35.2861C186.935 34.277 187.053 33.3615 187.289 32.5396C187.533 31.7095 187.879 30.9974 188.327 30.4033C188.782 29.8092 189.332 29.3535 189.975 29.0361C190.618 28.7106 191.342 28.5479 192.147 28.5479C192.978 28.5479 193.702 28.6943 194.32 28.9873C194.947 29.2721 195.476 29.6912 195.907 30.2446C196.347 30.7899 196.693 31.4491 196.945 32.2222C197.197 32.9953 197.372 33.8701 197.47 34.8467V35.9697C197.38 36.9382 197.205 37.8089 196.945 38.582C196.693 39.3551 196.347 40.0143 195.907 40.5596C195.476 41.1048 194.947 41.5239 194.32 41.8169C193.694 42.1017 192.961 42.2441 192.123 42.2441C191.334 42.2441 190.618 42.0773 189.975 41.7437C189.34 41.41 188.795 40.9421 188.339 40.3398C187.883 39.7376 187.533 39.0296 187.289 38.2158C187.053 37.3939 186.935 36.5028 186.935 35.5425ZM189.193 35.2861V35.5425C189.193 36.2017 189.258 36.8201 189.389 37.3979C189.527 37.9757 189.735 38.4844 190.011 38.9238C190.296 39.3633 190.658 39.7091 191.098 39.9614C191.537 40.2056 192.062 40.3276 192.672 40.3276C193.421 40.3276 194.04 40.1689 194.528 39.8516C195.016 39.5342 195.403 39.1151 195.688 38.5942C195.98 38.0734 196.208 37.5078 196.371 36.8975V33.9556C196.282 33.508 196.143 33.0767 195.956 32.6616C195.777 32.2384 195.541 31.8641 195.248 31.5386C194.963 31.2049 194.609 30.9404 194.186 30.7451C193.763 30.5498 193.266 30.4521 192.697 30.4521C192.078 30.4521 191.545 30.5824 191.098 30.8428C190.658 31.0951 190.296 31.445 190.011 31.8926C189.735 32.332 189.527 32.8447 189.389 33.4307C189.258 34.0085 189.193 34.627 189.193 35.2861ZM209.97 31.3311V47.0781H207.699V28.792H209.774L209.97 31.3311ZM218.869 35.2861V35.5425C218.869 36.5028 218.755 37.3939 218.527 38.2158C218.299 39.0296 217.965 39.7376 217.526 40.3398C217.095 40.9421 216.562 41.41 215.927 41.7437C215.292 42.0773 214.564 42.2441 213.742 42.2441C212.903 42.2441 212.163 42.1058 211.52 41.8291C210.877 41.5524 210.332 41.1496 209.884 40.6206C209.437 40.0916 209.079 39.4569 208.81 38.7163C208.55 37.9757 208.371 37.1416 208.273 36.2139V34.8467C208.371 33.8701 208.554 32.9953 208.822 32.2222C209.091 31.4491 209.445 30.7899 209.884 30.2446C210.332 29.6912 210.873 29.2721 211.508 28.9873C212.143 28.6943 212.875 28.5479 213.705 28.5479C214.535 28.5479 215.272 28.7106 215.915 29.0361C216.557 29.3535 217.099 29.8092 217.538 30.4033C217.978 30.9974 218.307 31.7095 218.527 32.5396C218.755 33.3615 218.869 34.277 218.869 35.2861ZM216.598 35.5425V35.2861C216.598 34.627 216.529 34.0085 216.391 33.4307C216.252 32.8447 216.037 32.332 215.744 31.8926C215.459 31.445 215.093 31.0951 214.645 30.8428C214.197 30.5824 213.664 30.4521 213.046 30.4521C212.476 30.4521 211.98 30.5498 211.557 30.7451C211.142 30.9404 210.788 31.2049 210.495 31.5386C210.202 31.8641 209.962 32.2384 209.774 32.6616C209.595 33.0767 209.461 33.508 209.372 33.9556V37.1172C209.534 37.6868 209.762 38.224 210.055 38.7285C210.348 39.2249 210.739 39.6278 211.227 39.937C211.715 40.2381 212.33 40.3887 213.07 40.3887C213.681 40.3887 214.206 40.2625 214.645 40.0103C215.093 39.7498 215.459 39.3958 215.744 38.9482C216.037 38.5007 216.252 37.988 216.391 37.4102C216.529 36.8242 216.598 36.2017 216.598 35.5425ZM224.008 23.25V42H221.75V23.25H224.008ZM223.471 34.8955L222.531 34.8589C222.539 33.9556 222.673 33.1214 222.934 32.3564C223.194 31.5833 223.56 30.9119 224.032 30.3423C224.504 29.7726 225.066 29.3332 225.717 29.0239C226.376 28.7065 227.104 28.5479 227.902 28.5479C228.553 28.5479 229.139 28.6374 229.66 28.8164C230.181 28.9873 230.624 29.264 230.99 29.6465C231.365 30.029 231.649 30.5254 231.845 31.1357C232.04 31.738 232.138 32.4744 232.138 33.3452V42H229.867V33.3208C229.867 32.6291 229.765 32.0757 229.562 31.6606C229.359 31.2375 229.062 30.9323 228.671 30.7451C228.28 30.5498 227.8 30.4521 227.23 30.4521C226.669 30.4521 226.156 30.5701 225.692 30.8062C225.237 31.0422 224.842 31.3677 224.508 31.7827C224.183 32.1978 223.926 32.6738 223.739 33.2109C223.56 33.7399 223.471 34.3014 223.471 34.8955ZM243.307 39.7417V32.9424C243.307 32.4215 243.201 31.9699 242.99 31.5874C242.786 31.1968 242.477 30.8957 242.062 30.6841C241.647 30.4725 241.134 30.3667 240.524 30.3667C239.954 30.3667 239.454 30.4644 239.022 30.6597C238.599 30.855 238.266 31.1113 238.021 31.4287C237.785 31.7461 237.667 32.0879 237.667 32.4541H235.409C235.409 31.9821 235.531 31.5142 235.775 31.0503C236.02 30.5864 236.369 30.1673 236.825 29.793C237.289 29.4105 237.842 29.1094 238.485 28.8896C239.136 28.6618 239.861 28.5479 240.658 28.5479C241.618 28.5479 242.465 28.7106 243.197 29.0361C243.938 29.3617 244.516 29.854 244.931 30.5132C245.354 31.1642 245.565 31.9821 245.565 32.9668V39.1191C245.565 39.5586 245.602 40.0265 245.675 40.5229C245.757 41.0194 245.875 41.4466 246.029 41.8047V42H243.673C243.559 41.7396 243.47 41.3937 243.405 40.9624C243.34 40.5229 243.307 40.116 243.307 39.7417ZM243.698 33.9922L243.722 35.5791H241.439C240.797 35.5791 240.223 35.632 239.718 35.7378C239.214 35.8354 238.791 35.986 238.449 36.1895C238.107 36.3929 237.847 36.6493 237.667 36.9585C237.488 37.2596 237.399 37.6136 237.399 38.0205C237.399 38.4355 237.493 38.814 237.68 39.1558C237.867 39.4976 238.148 39.7702 238.522 39.9736C238.904 40.1689 239.372 40.2666 239.926 40.2666C240.618 40.2666 241.228 40.1201 241.757 39.8271C242.286 39.5342 242.705 39.1761 243.014 38.7529C243.332 38.3298 243.502 37.9188 243.527 37.52L244.491 38.6064C244.434 38.9482 244.28 39.3267 244.027 39.7417C243.775 40.1567 243.437 40.5555 243.014 40.938C242.599 41.3123 242.103 41.6257 241.525 41.8779C240.955 42.1221 240.312 42.2441 239.596 42.2441C238.701 42.2441 237.916 42.0692 237.24 41.7192C236.573 41.3693 236.052 40.9014 235.678 40.3154C235.312 39.7214 235.128 39.0581 235.128 38.3257C235.128 37.6177 235.267 36.9951 235.543 36.458C235.82 35.9128 236.219 35.4611 236.74 35.103C237.261 34.7368 237.887 34.4601 238.62 34.2729C239.352 34.0858 240.17 33.9922 241.073 33.9922H243.698ZM241.757 26.6436H240.133L240.121 24.7881C240.536 24.7637 240.874 24.723 241.134 24.666C241.395 24.6009 241.586 24.5073 241.708 24.3853C241.83 24.255 241.891 24.0841 241.891 23.8726C241.891 23.7017 241.838 23.5592 241.732 23.4453C241.627 23.3232 241.48 23.2256 241.293 23.1523C241.106 23.071 240.89 23.014 240.646 22.9814C240.402 22.9489 240.141 22.9326 239.865 22.9326L239.95 21.6387C240.552 21.6387 241.081 21.6916 241.537 21.7974C242.001 21.9032 242.388 22.0578 242.697 22.2612C243.014 22.4647 243.25 22.7088 243.405 22.9937C243.568 23.2703 243.649 23.5796 243.649 23.9214C243.649 24.5399 243.454 24.9915 243.063 25.2764C242.672 25.5531 242.241 25.724 241.769 25.7891L241.757 26.6436ZM251.571 28.792V42H249.301V28.792H251.571ZM249.13 25.2886C249.13 24.9224 249.24 24.6131 249.459 24.3608C249.687 24.1086 250.021 23.9824 250.46 23.9824C250.892 23.9824 251.221 24.1086 251.449 24.3608C251.685 24.6131 251.803 24.9224 251.803 25.2886C251.803 25.6385 251.685 25.9396 251.449 26.1919C251.221 26.436 250.892 26.5581 250.46 26.5581C250.021 26.5581 249.687 26.436 249.459 26.1919C249.24 25.9396 249.13 25.6385 249.13 25.2886ZM263.852 23.25V42H261.581V23.25H263.852ZM275.265 39.7417V32.9424C275.265 32.4215 275.159 31.9699 274.948 31.5874C274.744 31.1968 274.435 30.8957 274.02 30.6841C273.605 30.4725 273.092 30.3667 272.482 30.3667C271.912 30.3667 271.412 30.4644 270.98 30.6597C270.557 30.855 270.224 31.1113 269.979 31.4287C269.743 31.7461 269.625 32.0879 269.625 32.4541H267.367C267.367 31.9821 267.489 31.5142 267.733 31.0503C267.978 30.5864 268.327 30.1673 268.783 29.793C269.247 29.4105 269.8 29.1094 270.443 28.8896C271.094 28.6618 271.819 28.5479 272.616 28.5479C273.576 28.5479 274.423 28.7106 275.155 29.0361C275.896 29.3617 276.474 29.854 276.889 30.5132C277.312 31.1642 277.523 31.9821 277.523 32.9668V39.1191C277.523 39.5586 277.56 40.0265 277.633 40.5229C277.715 41.0194 277.833 41.4466 277.987 41.8047V42H275.631C275.517 41.7396 275.428 41.3937 275.363 40.9624C275.298 40.5229 275.265 40.116 275.265 39.7417ZM275.656 33.9922L275.68 35.5791H273.397C272.755 35.5791 272.181 35.632 271.676 35.7378C271.172 35.8354 270.749 35.986 270.407 36.1895C270.065 36.3929 269.805 36.6493 269.625 36.9585C269.446 37.2596 269.357 37.6136 269.357 38.0205C269.357 38.4355 269.451 38.814 269.638 39.1558C269.825 39.4976 270.106 39.7702 270.48 39.9736C270.862 40.1689 271.33 40.2666 271.884 40.2666C272.576 40.2666 273.186 40.1201 273.715 39.8271C274.244 39.5342 274.663 39.1761 274.972 38.7529C275.29 38.3298 275.46 37.9188 275.485 37.52L276.449 38.6064C276.392 38.9482 276.238 39.3267 275.985 39.7417C275.733 40.1567 275.395 40.5555 274.972 40.938C274.557 41.3123 274.061 41.6257 273.483 41.8779C272.913 42.1221 272.27 42.2441 271.554 42.2441C270.659 42.2441 269.874 42.0692 269.198 41.7192C268.531 41.3693 268.01 40.9014 267.636 40.3154C267.27 39.7214 267.086 39.0581 267.086 38.3257C267.086 37.6177 267.225 36.9951 267.501 36.458C267.778 35.9128 268.177 35.4611 268.698 35.103C269.219 34.7368 269.845 34.4601 270.578 34.2729C271.31 34.0858 272.128 33.9922 273.031 33.9922H275.656ZM271.786 23.25L274.142 26.8389H272.201L269.052 23.25H271.786ZM289.535 31.6118V42H287.277V28.792H289.413L289.535 31.6118ZM288.998 34.8955L288.058 34.8589C288.066 33.9556 288.201 33.1214 288.461 32.3564C288.721 31.5833 289.088 30.9119 289.56 30.3423C290.032 29.7726 290.593 29.3332 291.244 29.0239C291.903 28.7065 292.632 28.5479 293.429 28.5479C294.08 28.5479 294.666 28.6374 295.187 28.8164C295.708 28.9873 296.151 29.264 296.518 29.6465C296.892 30.029 297.177 30.5254 297.372 31.1357C297.567 31.738 297.665 32.4744 297.665 33.3452V42H295.395V33.3208C295.395 32.6291 295.293 32.0757 295.089 31.6606C294.886 31.2375 294.589 30.9323 294.198 30.7451C293.808 30.5498 293.327 30.4521 292.758 30.4521C292.196 30.4521 291.684 30.5701 291.22 30.8062C290.764 31.0422 290.369 31.3677 290.036 31.7827C289.71 32.1978 289.454 32.6738 289.267 33.2109C289.088 33.7399 288.998 34.3014 288.998 34.8955ZM309.652 28.792H311.703V41.7192C311.703 42.883 311.467 43.8758 310.995 44.6978C310.523 45.5197 309.864 46.1423 309.018 46.5654C308.179 46.9967 307.211 47.2124 306.112 47.2124C305.657 47.2124 305.119 47.1392 304.501 46.9927C303.891 46.8543 303.288 46.6143 302.694 46.2725C302.108 45.9388 301.616 45.4871 301.217 44.9175L302.401 43.5747C302.955 44.242 303.533 44.7059 304.135 44.9663C304.745 45.2267 305.347 45.3569 305.941 45.3569C306.658 45.3569 307.276 45.2227 307.797 44.9541C308.318 44.6855 308.721 44.2868 309.005 43.7578C309.298 43.237 309.445 42.5941 309.445 41.8291V31.6973L309.652 28.792ZM300.558 35.5425V35.2861C300.558 34.277 300.676 33.3615 300.912 32.5396C301.156 31.7095 301.502 30.9974 301.95 30.4033C302.405 29.8092 302.955 29.3535 303.598 29.0361C304.241 28.7106 304.965 28.5479 305.771 28.5479C306.601 28.5479 307.325 28.6943 307.943 28.9873C308.57 29.2721 309.099 29.6912 309.53 30.2446C309.97 30.7899 310.316 31.4491 310.568 32.2222C310.82 32.9953 310.995 33.8701 311.093 34.8467V35.9697C311.003 36.9382 310.828 37.8089 310.568 38.582C310.316 39.3551 309.97 40.0143 309.53 40.5596C309.099 41.1048 308.57 41.5239 307.943 41.8169C307.317 42.1017 306.584 42.2441 305.746 42.2441C304.957 42.2441 304.241 42.0773 303.598 41.7437C302.963 41.41 302.418 40.9421 301.962 40.3398C301.506 39.7376 301.156 39.0296 300.912 38.2158C300.676 37.3939 300.558 36.5028 300.558 35.5425ZM302.816 35.2861V35.5425C302.816 36.2017 302.882 36.8201 303.012 37.3979C303.15 37.9757 303.358 38.4844 303.634 38.9238C303.919 39.3633 304.281 39.7091 304.721 39.9614C305.16 40.2056 305.685 40.3276 306.295 40.3276C307.044 40.3276 307.663 40.1689 308.151 39.8516C308.639 39.5342 309.026 39.1151 309.311 38.5942C309.604 38.0734 309.831 37.5078 309.994 36.8975V33.9556C309.905 33.508 309.766 33.0767 309.579 32.6616C309.4 32.2384 309.164 31.8641 308.871 31.5386C308.586 31.2049 308.232 30.9404 307.809 30.7451C307.386 30.5498 306.889 30.4521 306.32 30.4521C305.701 30.4521 305.168 30.5824 304.721 30.8428C304.281 31.0951 303.919 31.445 303.634 31.8926C303.358 32.332 303.15 32.8447 303.012 33.4307C302.882 34.0085 302.816 34.627 302.816 35.2861ZM327.499 27.73H329.232C329.232 28.617 329.114 29.3617 328.878 29.9639C328.651 30.5661 328.248 31.0177 327.67 31.3188C327.092 31.62 326.278 31.7705 325.229 31.7705V30.3789C325.961 30.3789 326.486 30.2894 326.803 30.1104C327.121 29.9232 327.316 29.6343 327.389 29.2437C327.462 28.853 327.499 28.3485 327.499 27.73ZM323.214 38.9482V28.792H325.485V42H323.324L323.214 38.9482ZM323.642 36.165L324.582 36.1406C324.582 37.0195 324.488 37.8333 324.301 38.582C324.122 39.3226 323.829 39.9655 323.422 40.5107C323.015 41.056 322.482 41.4832 321.823 41.7925C321.164 42.0936 320.362 42.2441 319.418 42.2441C318.775 42.2441 318.185 42.1506 317.648 41.9634C317.119 41.7762 316.663 41.4873 316.281 41.0967C315.898 40.7061 315.601 40.1974 315.39 39.5708C315.186 38.9442 315.084 38.1914 315.084 37.3125V28.792H317.343V37.3369C317.343 37.931 317.408 38.4233 317.538 38.814C317.676 39.1965 317.86 39.5016 318.087 39.7295C318.323 39.9492 318.584 40.1038 318.869 40.1934C319.162 40.2829 319.463 40.3276 319.772 40.3276C320.732 40.3276 321.493 40.1445 322.055 39.7783C322.616 39.404 323.019 38.9035 323.263 38.2769C323.515 37.6421 323.642 36.9382 323.642 36.165ZM341.842 27.3394H343.661C343.661 28.2345 343.539 29.0076 343.295 29.6587C343.051 30.3016 342.644 30.798 342.074 31.1479C341.505 31.4979 340.731 31.6729 339.755 31.6729V30.2568C340.365 30.2568 340.817 30.1348 341.11 29.8906C341.411 29.6465 341.606 29.3047 341.696 28.8652C341.793 28.4258 341.842 27.9172 341.842 27.3394ZM330.014 35.5425V35.2617C330.014 34.3096 330.152 33.4266 330.429 32.6128C330.705 31.7909 331.104 31.0788 331.625 30.4766C332.146 29.8662 332.777 29.3942 333.517 29.0605C334.258 28.7188 335.088 28.5479 336.007 28.5479C336.935 28.5479 337.769 28.7188 338.51 29.0605C339.258 29.3942 339.893 29.8662 340.414 30.4766C340.935 31.0788 341.334 31.7909 341.61 32.6128C341.887 33.4266 342.025 34.3096 342.025 35.2617V35.5425C342.025 36.4946 341.887 37.3776 341.61 38.1914C341.334 39.0052 340.935 39.7173 340.414 40.3276C339.893 40.9299 339.263 41.4019 338.522 41.7437C337.79 42.0773 336.959 42.2441 336.032 42.2441C335.104 42.2441 334.27 42.0773 333.529 41.7437C332.789 41.4019 332.154 40.9299 331.625 40.3276C331.104 39.7173 330.705 39.0052 330.429 38.1914C330.152 37.3776 330.014 36.4946 330.014 35.5425ZM332.272 35.2617V35.5425C332.272 36.2017 332.349 36.8242 332.504 37.4102C332.659 37.988 332.89 38.5007 333.2 38.9482C333.517 39.3958 333.912 39.7498 334.384 40.0103C334.856 40.2625 335.405 40.3887 336.032 40.3887C336.65 40.3887 337.191 40.2625 337.655 40.0103C338.127 39.7498 338.518 39.3958 338.827 38.9482C339.136 38.5007 339.368 37.988 339.523 37.4102C339.686 36.8242 339.767 36.2017 339.767 35.5425V35.2617C339.767 34.6107 339.686 33.9963 339.523 33.4185C339.368 32.8325 339.132 32.3158 338.815 31.8682C338.506 31.4124 338.115 31.0544 337.643 30.7939C337.179 30.5335 336.634 30.4033 336.007 30.4033C335.389 30.4033 334.844 30.5335 334.372 30.7939C333.908 31.0544 333.517 31.4124 333.2 31.8682C332.89 32.3158 332.659 32.8325 332.504 33.4185C332.349 33.9963 332.272 34.6107 332.272 35.2617ZM334.921 23.25L337.277 26.8389H335.336L332.187 23.25H334.921ZM347.372 28.792V42H345.102V28.792H347.372ZM344.931 25.2886C344.931 24.9224 345.041 24.6131 345.26 24.3608C345.488 24.1086 345.822 23.9824 346.261 23.9824C346.693 23.9824 347.022 24.1086 347.25 24.3608C347.486 24.6131 347.604 24.9224 347.604 25.2886C347.604 25.6385 347.486 25.9396 347.25 26.1919C347.022 26.436 346.693 26.5581 346.261 26.5581C345.822 26.5581 345.488 26.436 345.26 26.1919C345.041 25.9396 344.931 25.6385 344.931 25.2886ZM94.9673 61.4165V72H92.6968V58.792H94.8452L94.9673 61.4165ZM94.5034 64.8955L93.4536 64.8589C93.4618 63.9556 93.5798 63.1214 93.8076 62.3564C94.0355 61.5833 94.3732 60.9119 94.8208 60.3423C95.2684 59.7726 95.8258 59.3332 96.4932 59.0239C97.1605 58.7065 97.9336 58.5479 98.8125 58.5479C99.431 58.5479 100.001 58.6374 100.521 58.8164C101.042 58.9873 101.494 59.2599 101.876 59.6343C102.259 60.0086 102.556 60.4888 102.768 61.0747C102.979 61.6606 103.085 62.3687 103.085 63.1987V72H100.827V63.3086C100.827 62.6169 100.709 62.0635 100.473 61.6484C100.245 61.2334 99.9193 60.9323 99.4961 60.7451C99.0729 60.5498 98.5765 60.4521 98.0068 60.4521C97.3395 60.4521 96.7821 60.5701 96.3345 60.8062C95.8869 61.0422 95.5288 61.3677 95.2603 61.7827C94.9917 62.1978 94.7964 62.6738 94.6743 63.2109C94.5604 63.7399 94.5034 64.3014 94.5034 64.8955ZM103.061 63.6504L101.547 64.1143C101.555 63.39 101.673 62.6942 101.901 62.0269C102.137 61.3595 102.475 60.7655 102.914 60.2446C103.362 59.7238 103.911 59.3128 104.562 59.0117C105.213 58.7025 105.958 58.5479 106.796 58.5479C107.504 58.5479 108.131 58.6414 108.676 58.8286C109.229 59.0158 109.693 59.3047 110.067 59.6953C110.45 60.0778 110.739 60.5701 110.934 61.1724C111.129 61.7746 111.227 62.4907 111.227 63.3208V72H108.957V63.2964C108.957 62.5558 108.839 61.9821 108.603 61.5752C108.375 61.1602 108.049 60.8713 107.626 60.7085C107.211 60.5376 106.715 60.4521 106.137 60.4521C105.64 60.4521 105.201 60.5376 104.818 60.7085C104.436 60.8794 104.114 61.1154 103.854 61.4165C103.594 61.7095 103.394 62.0472 103.256 62.4297C103.126 62.8122 103.061 63.2191 103.061 63.6504ZM122.433 69.7417V62.9424C122.433 62.4215 122.327 61.9699 122.116 61.5874C121.912 61.1968 121.603 60.8957 121.188 60.6841C120.773 60.4725 120.26 60.3667 119.65 60.3667C119.08 60.3667 118.58 60.4644 118.148 60.6597C117.725 60.855 117.392 61.1113 117.147 61.4287C116.911 61.7461 116.793 62.0879 116.793 62.4541H114.535C114.535 61.9821 114.657 61.5142 114.901 61.0503C115.146 60.5864 115.495 60.1673 115.951 59.793C116.415 59.4105 116.968 59.1094 117.611 58.8896C118.262 58.6618 118.987 58.5479 119.784 58.5479C120.744 58.5479 121.591 58.7106 122.323 59.0361C123.064 59.3617 123.642 59.854 124.057 60.5132C124.48 61.1642 124.691 61.9821 124.691 62.9668V69.1191C124.691 69.5586 124.728 70.0265 124.801 70.5229C124.883 71.0194 125.001 71.4466 125.155 71.8047V72H122.799C122.685 71.7396 122.596 71.3937 122.531 70.9624C122.466 70.5229 122.433 70.116 122.433 69.7417ZM122.824 63.9922L122.848 65.5791H120.565C119.923 65.5791 119.349 65.632 118.844 65.7378C118.34 65.8354 117.917 65.986 117.575 66.1895C117.233 66.3929 116.972 66.6493 116.793 66.9585C116.614 67.2596 116.525 67.6136 116.525 68.0205C116.525 68.4355 116.618 68.814 116.806 69.1558C116.993 69.4976 117.274 69.7702 117.648 69.9736C118.03 70.1689 118.498 70.2666 119.052 70.2666C119.743 70.2666 120.354 70.1201 120.883 69.8271C121.412 69.5342 121.831 69.1761 122.14 68.7529C122.458 68.3298 122.628 67.9188 122.653 67.52L123.617 68.6064C123.56 68.9482 123.406 69.3267 123.153 69.7417C122.901 70.1567 122.563 70.5555 122.14 70.938C121.725 71.3123 121.229 71.6257 120.651 71.8779C120.081 72.1221 119.438 72.2441 118.722 72.2441C117.827 72.2441 117.042 72.0692 116.366 71.7192C115.699 71.3693 115.178 70.9014 114.804 70.3154C114.438 69.7214 114.254 69.0581 114.254 68.3257C114.254 67.6177 114.393 66.9951 114.669 66.458C114.946 65.9128 115.345 65.4611 115.866 65.103C116.387 64.7368 117.013 64.4601 117.746 64.2729C118.478 64.0858 119.296 63.9922 120.199 63.9922H122.824ZM118.783 56.8389L121.151 53.25H123.874L120.602 56.8389H118.783ZM131.759 70.6328L135.434 58.792H137.851L132.553 74.0386C132.431 74.3641 132.268 74.714 132.064 75.0884C131.869 75.4709 131.617 75.833 131.308 76.1748C130.998 76.5166 130.624 76.7933 130.185 77.0049C129.753 77.2246 129.236 77.3345 128.634 77.3345C128.455 77.3345 128.227 77.3101 127.951 77.2612C127.674 77.2124 127.479 77.1717 127.365 77.1392L127.353 75.3081C127.418 75.3162 127.519 75.3244 127.658 75.3325C127.804 75.3488 127.906 75.3569 127.963 75.3569C128.476 75.3569 128.911 75.2878 129.269 75.1494C129.627 75.0192 129.928 74.7954 130.172 74.478C130.425 74.1688 130.64 73.7415 130.819 73.1963L131.759 70.6328ZM129.062 58.792L132.492 69.0459L133.078 71.4263L131.454 72.2563L126.596 58.792H129.062Z" fill="#6A6A6A"/>
<mask id="mask0_417_5476" style="mask-type:alpha" maskUnits="userSpaceOnUse" x="382" y="19" width="52" height="53">
<path d="M407.89 19.3751L386.019 19.4018L391.762 25.247C386.009 30.031 382.334 37.3087 382.334 45.4603C382.334 45.5498 382.334 45.6392 382.335 45.7284L382.357 67.8741L388.104 62.0289C392.804 67.8847 399.954 71.6248 407.963 71.6248C416.297 71.6248 423.701 67.5756 428.382 61.3048L418.969 51.623C416.793 55.7185 412.539 58.3501 407.963 58.3501C403.849 58.3501 399.751 55.8912 397.566 52.4005L404.229 45.6186L395.377 45.6168C395.376 45.5648 395.376 45.5127 395.376 45.4606C395.376 41.2731 397.792 37.1021 401.221 34.878L407.884 41.6599L407.886 32.6509C407.937 32.6502 407.988 32.6499 408.039 32.6499C412.154 32.6499 416.251 35.1087 418.436 38.5994L411.774 45.3814L433.667 45.3857L433.667 45.3872L433.641 23.1259L427.898 28.9711C423.198 23.1153 416.048 19.3751 408.04 19.3751C407.989 19.3751 407.94 19.3748 407.89 19.3751Z" fill="black"/>
</mask>
<g mask="url(#mask0_417_5476)">
<path d="M433.668 45.3871C433.668 45.3479 433.641 23.1257 433.641 23.1257L427.899 28.971C423.199 23.1152 416.049 19.375 408.04 19.375C399.706 19.375 392.302 23.4242 387.621 29.695L397.034 39.3768C399.21 35.2813 403.464 32.6497 408.04 32.6497C412.154 32.6497 416.252 35.1086 418.437 38.5993L411.774 45.3812L433.667 45.3856" fill="#1C3AA9"/>
<g filter="url(#filter0_d_417_5476)">
<path d="M407.89 19.375L386.019 19.4017L391.762 25.2469C386.009 30.0309 382.334 37.3086 382.334 45.4602C382.334 53.9434 386.312 61.4798 392.473 66.2439L401.985 56.6628C397.961 54.4484 395.376 50.1179 395.376 45.4605C395.376 41.2729 397.792 37.102 401.221 34.8778L407.884 41.6598L407.888 19.3757" fill="#4285F4"/>
</g>
<g filter="url(#filter1_d_417_5476)">
<path d="M382.336 45.6128L382.358 67.8742L388.105 62.0289C392.805 67.8847 399.955 71.6249 407.963 71.6249C416.298 71.6249 423.702 67.5757 428.383 61.3049L418.97 51.6231C416.794 55.7185 412.54 58.3502 407.964 58.3502C403.85 58.3502 399.752 55.8913 397.567 52.4006L404.23 45.6187L382.337 45.6143" fill="#ABABAB"/>
</g>
</g>
<path d="M1 11C1 5.47715 5.47715 1 11 1H455C460.523 1 465 5.47715 465 11V82C465 87.5229 460.523 92 455 92H11C5.47715 92 1 87.5229 1 82V11Z" stroke="#C1C1C1"/>
<path d="M27 27C27 24.2386 29.2386 22 32 22H61C63.7614 22 66 24.2386 66 27V56C66 58.7614 63.7614 61 61 61H32C29.2386 61 27 58.7614 27 56V27Z" fill="#F9F9F9"/>
<path d="M27 27C27 24.2386 29.2386 22 32 22H61C63.7614 22 66 24.2386 66 27V56C66 58.7614 63.7614 61 61 61H32C29.2386 61 27 58.7614 27 56V27Z" stroke="black"/>
<defs>
<filter id="filter0_d_417_5476" x="364.334" y="1.375" width="61.5557" height="82.8687" filterUnits="userSpaceOnUse" color-interpolation-filters="sRGB">
<feFlood flood-opacity="0" result="BackgroundImageFix"/>
<feColorMatrix in="SourceAlpha" type="matrix" values="0 0 0 0 0 0 0 0 0 0 0 0 0 0 0 0 0 0 127 0" result="hardAlpha"/>
<feOffset/>
<feGaussianBlur stdDeviation="9"/>
<feColorMatrix type="matrix" values="0 0 0 0 0 0 0 0 0 0 0 0 0 0 0 0 0 0 0.24 0"/>
<feBlend mode="normal" in2="BackgroundImageFix" result="effect1_dropShadow_417_5476"/>
<feBlend mode="normal" in="SourceGraphic" in2="effect1_dropShadow_417_5476" result="shape"/>
</filter>
<filter id="filter1_d_417_5476" x="364.336" y="27.6128" width="82.0466" height="62.0122" filterUnits="userSpaceOnUse" color-interpolation-filters="sRGB">
<feFlood flood-opacity="0" result="BackgroundImageFix"/>
<feColorMatrix in="SourceAlpha" type="matrix" values="0 0 0 0 0 0 0 0 0 0 0 0 0 0 0 0 0 0 127 0" result="hardAlpha"/>
<feOffset/>
<feGaussianBlur stdDeviation="9"/>
<feColorMatrix type="matrix" values="0 0 0 0 0 0 0 0 0 0 0 0 0 0 0 0 0 0 0.24 0"/>
<feBlend mode="normal" in2="BackgroundImageFix" result="effect1_dropShadow_417_5476"/>
<feBlend mode="normal" in="SourceGraphic" in2="effect1_dropShadow_417_5476" result="shape"/>
</filter>
</defs>
</svg>
