<svg width="25" height="25" viewBox="0 0 25 25" fill="none" xmlns="http://www.w3.org/2000/svg">
<path d="M17.4113 6.91466V5.57537C17.4113 5.4526 17.3109 5.35216 17.1881 5.35216H6.47381C6.35104 5.35216 6.25059 5.4526 6.25059 5.57537V6.91466C6.25059 7.03742 6.35104 7.13787 6.47381 7.13787H17.1881C17.3109 7.13787 17.4113 7.03742 17.4113 6.91466ZM6.47381 9.37001C6.35104 9.37001 6.25059 9.47046 6.25059 9.59323V10.9325C6.25059 11.0553 6.35104 11.1557 6.47381 11.1557H11.6077C11.7305 11.1557 11.831 11.0553 11.831 10.9325V9.59323C11.831 9.47046 11.7305 9.37001 11.6077 9.37001H6.47381ZM16.9649 12.6066C13.6362 12.6066 10.9381 15.3047 10.9381 18.6334C10.9381 21.9621 13.6362 24.6602 16.9649 24.6602C20.2936 24.6602 22.9917 21.9621 22.9917 18.6334C22.9917 15.3047 20.2936 12.6066 16.9649 12.6066ZM19.9643 21.6328C19.1635 22.4336 18.0977 22.8745 16.9649 22.8745C15.8321 22.8745 14.7662 22.4336 13.9654 21.6328C13.1647 20.8321 12.7238 19.7662 12.7238 18.6334C12.7238 17.5006 13.1647 16.4347 13.9654 15.634C14.7662 14.8332 15.8321 14.3923 16.9649 14.3923C18.0977 14.3923 19.1635 14.8332 19.9643 15.634C20.7651 16.4347 21.206 17.5006 21.206 18.6334C21.206 19.7662 20.7651 20.8321 19.9643 21.6328ZM19.4481 16.5129H18.2121C18.1395 16.5129 18.0726 16.5464 18.0307 16.6049L16.259 19.0547L15.6144 18.1647C15.5938 18.1359 15.5665 18.1125 15.535 18.0965C15.5034 18.0805 15.4685 18.0723 15.4331 18.0726H14.2026C14.0212 18.0726 13.9152 18.2791 14.0212 18.4269L16.0804 21.2757C16.1697 21.3985 16.351 21.3985 16.4403 21.2757L19.6267 16.8672C19.7355 16.7193 19.6295 16.5129 19.4481 16.5129ZM10.4917 21.9816H4.01845V2.33876H19.6435V11.937C19.6435 12.0597 19.7439 12.1602 19.8667 12.1602H21.4292C21.5519 12.1602 21.6524 12.0597 21.6524 11.937V1.22269C21.6524 0.72883 21.2534 0.329834 20.7595 0.329834H2.90238C2.40852 0.329834 2.00952 0.72883 2.00952 1.22269V23.0977C2.00952 23.5916 2.40852 23.9905 2.90238 23.9905H10.4917C10.6144 23.9905 10.7149 23.8901 10.7149 23.7673V22.2048C10.7149 22.0821 10.6144 21.9816 10.4917 21.9816Z" fill="white"/>
</svg>
