<svg width="25" height="25" viewBox="0 0 25 25" fill="none" xmlns="http://www.w3.org/2000/svg">
<path d="M12.5 1.5625C6.45996 1.5625 1.5625 6.45996 1.5625 12.5C1.5625 18.54 6.45996 23.4375 12.5 23.4375C18.54 23.4375 23.4375 18.54 23.4375 12.5C23.4375 6.45996 18.54 1.5625 12.5 1.5625ZM12.5 21.582C7.48535 21.582 3.41797 17.5146 3.41797 12.5C3.41797 7.48535 7.48535 3.41797 12.5 3.41797C17.5146 3.41797 21.582 7.48535 21.582 12.5C21.582 17.5146 17.5146 21.582 12.5 21.582Z" fill="#6A6A6A"/>
<path d="M15.2242 7.73117C14.4918 7.08908 13.525 6.73752 12.4996 6.73752C11.4742 6.73752 10.5074 7.09152 9.77501 7.73117C9.01329 8.39767 8.59337 9.29367 8.59337 10.2531V10.4387C8.59337 10.5461 8.68126 10.634 8.78868 10.634H9.96056C10.068 10.634 10.1559 10.5461 10.1559 10.4387V10.2531C10.1559 9.17648 11.2081 8.30002 12.4996 8.30002C13.7911 8.30002 14.8434 9.17648 14.8434 10.2531C14.8434 11.0124 14.3063 11.7082 13.4737 12.028C12.9562 12.2258 12.5167 12.5725 12.2018 13.0266C11.8819 13.4904 11.7159 14.0471 11.7159 14.6111V15.136C11.7159 15.2434 11.8038 15.3313 11.9112 15.3313H13.0831C13.1905 15.3313 13.2784 15.2434 13.2784 15.136V14.5818C13.2797 14.3447 13.3523 14.1136 13.4869 13.9185C13.6215 13.7234 13.8117 13.5734 14.0328 13.488C15.4733 12.9338 16.4034 11.6643 16.4034 10.2531C16.4059 9.29367 15.9859 8.39767 15.2242 7.73117ZM11.5231 17.8703C11.5231 18.1293 11.6259 18.3777 11.8091 18.5609C11.9922 18.744 12.2406 18.8469 12.4996 18.8469C12.7586 18.8469 13.007 18.744 13.1902 18.5609C13.3733 18.3777 13.4762 18.1293 13.4762 17.8703C13.4762 17.6113 13.3733 17.3629 13.1902 17.1798C13.007 16.9967 12.7586 16.8938 12.4996 16.8938C12.2406 16.8938 11.9922 16.9967 11.8091 17.1798C11.6259 17.3629 11.5231 17.6113 11.5231 17.8703Z" fill="#6A6A6A"/>
</svg>
