<svg width="26" height="27" viewBox="0 0 26 27" fill="none" xmlns="http://www.w3.org/2000/svg">
<path d="M17.7594 15.0416C16.2853 15.0416 15.0897 16.2371 15.0897 17.7112C15.0897 19.1853 16.2853 20.3809 17.7594 20.3809C19.2335 20.3809 20.429 19.1853 20.429 17.7112C20.429 16.2371 19.2335 15.0416 17.7594 15.0416ZM17.7594 18.6978C17.2138 18.6978 16.7728 18.2568 16.7728 17.7112C16.7728 17.1657 17.2138 16.7246 17.7594 16.7246C18.3049 16.7246 18.746 17.1657 18.746 17.7112C18.746 18.2568 18.3049 18.6978 17.7594 18.6978ZM23.679 3.52148H17.5272C17.5272 2.62483 16.7989 1.89648 15.9022 1.89648H13.5808C12.6842 1.89648 11.9558 2.62483 11.9558 3.52148H5.80403C5.29041 3.52148 4.87545 3.93644 4.87545 4.45006V10.2536H2.32188C1.80827 10.2536 1.39331 10.6686 1.39331 11.1822V24.1822C1.39331 24.6958 1.80827 25.1108 2.32188 25.1108H12.0719C12.5855 25.1108 13.0005 24.6958 13.0005 24.1822V23.7179H23.679C24.1926 23.7179 24.6076 23.303 24.6076 22.7893V4.45006C24.6076 3.93644 24.1926 3.52148 23.679 3.52148ZM11.7237 5.37863H13.813V3.75363H15.6701V5.37863H17.7594V6.77148H11.7237V5.37863ZM11.1433 23.2536H3.25045V16.5215H11.1433V23.2536ZM11.1433 14.6643H3.25045V12.1108H11.1433V14.6643ZM22.5183 21.6286H13.0005V11.1822C13.0005 10.6686 12.5855 10.2536 12.0719 10.2536H6.96474V5.61077H9.86652V8.62863H19.6165V5.61077H22.5183V21.6286ZM18.5719 10.4858V13.2715C18.5719 13.3992 18.6763 13.5036 18.804 13.5036H20.1969C20.3246 13.5036 20.429 13.3992 20.429 13.2715V10.4858C20.429 10.3581 20.3246 10.2536 20.1969 10.2536H18.804C18.6763 10.2536 18.5719 10.3581 18.5719 10.4858ZM15.3219 13.5036H16.7147C16.8424 13.5036 16.9469 13.3992 16.9469 13.2715V11.6465C16.9469 11.5188 16.8424 11.4143 16.7147 11.4143H15.3219C15.1942 11.4143 15.0897 11.5188 15.0897 11.6465V13.2715C15.0897 13.3992 15.1942 13.5036 15.3219 13.5036Z" fill="#6A6A6A"/>
</svg>
