<svg width="17" height="17" viewBox="0 0 17 17" fill="none" xmlns="http://www.w3.org/2000/svg">
<path d="M6.37491 4.81957H7.77703V11.2382C7.77703 11.3217 7.84534 11.39 7.92882 11.39H9.06721C9.1507 11.39 9.219 11.3217 9.219 11.2382V4.81957H10.6249C10.752 4.81957 10.8222 4.67347 10.7444 4.57481L8.61944 1.88441C8.60525 1.86627 8.5871 1.8516 8.5664 1.84151C8.54569 1.83142 8.52295 1.82617 8.49991 1.82617C8.47688 1.82617 8.45414 1.83142 8.43343 1.84151C8.41272 1.8516 8.39458 1.86627 8.38038 1.88441L6.25538 4.57291C6.17759 4.67347 6.24779 4.81957 6.37491 4.81957ZM15.4441 10.669H14.3057C14.2222 10.669 14.1539 10.7373 14.1539 10.8208V13.7427H2.8459V10.8208C2.8459 10.7373 2.77759 10.669 2.69411 10.669H1.55572C1.47223 10.669 1.40393 10.7373 1.40393 10.8208V14.5775C1.40393 14.9133 1.67525 15.1846 2.01107 15.1846H14.9888C15.3246 15.1846 15.5959 14.9133 15.5959 14.5775V10.8208C15.5959 10.7373 15.5276 10.669 15.4441 10.669Z" fill="#6A6A6A"/>
</svg>
