<svg width="15" height="15" viewBox="0 0 15 15" fill="none" xmlns="http://www.w3.org/2000/svg">
<path d="M10.7413 1.02359C10.7208 1.01326 10.698 1.00837 10.6751 1.00939C10.6522 1.01041 10.6299 1.0173 10.6104 1.0294C10.5909 1.04149 10.5748 1.0584 10.5638 1.07849C10.5527 1.09858 10.5469 1.12118 10.5471 1.14412V2.2189C10.5471 2.31097 10.5956 2.39635 10.6727 2.44658C11.0502 2.68419 11.3995 2.96389 11.7139 3.28028C12.2614 3.82939 12.6916 4.46722 12.9913 5.17705C13.3012 5.91186 13.46 6.70154 13.4584 7.49903C13.4584 8.30428 13.301 9.08609 12.9913 9.82102C12.692 10.5298 12.2582 11.1739 11.7139 11.7178C11.1715 12.2634 10.5278 12.6979 9.81886 12.9968C9.0856 13.3082 8.30379 13.4656 7.50022 13.4656C6.69665 13.4656 5.91484 13.3082 5.18158 12.9968C4.47266 12.6979 3.82892 12.2634 3.28649 11.7178C2.74224 11.1739 2.30847 10.5298 2.00915 9.82102C1.69924 9.0862 1.54039 8.29653 1.54207 7.49903C1.54207 6.69379 1.69944 5.91198 2.00915 5.17705C2.30881 4.46722 2.73906 3.82939 3.28649 3.28028C3.60457 2.9622 3.95279 2.6843 4.32779 2.44658C4.40647 2.39803 4.45334 2.31097 4.45334 2.2189V1.14245C4.45334 1.042 4.34788 0.978385 4.25915 1.02191C1.91707 2.20048 0.301558 4.61287 0.268076 7.40863C0.221201 11.4064 3.49073 14.7278 7.48683 14.7362C11.4879 14.7446 14.7324 11.5001 14.7324 7.49736C14.7324 4.66477 13.1085 2.2122 10.7413 1.02359ZM6.9645 8.30763H8.03593C8.10959 8.30763 8.16986 8.24736 8.16986 8.1737V0.40584C8.16986 0.332179 8.10959 0.271912 8.03593 0.271912H6.9645C6.89084 0.271912 6.83058 0.332179 6.83058 0.40584V8.1737C6.83058 8.24736 6.89084 8.30763 6.9645 8.30763Z" fill="black" fill-opacity="0.85"/>
</svg>
